<?xml version="1.0" standalone="no"?>
<!DOCTYPE svg PUBLIC "-//W3C//DTD SVG 20010904//EN"
 "http://www.w3.org/TR/2001/REC-SVG-20010904/DTD/svg10.dtd">
<svg version="1.0" xmlns="http://www.w3.org/2000/svg"
 width="260.000000pt" height="260.000000pt" viewBox="0 0 260.000000 260.000000"
 preserveAspectRatio="xMidYMid meet">
<metadata>
Created by potrace 1.11, written by Peter Selinger 2001-2013
</metadata>
<g transform="translate(0.000000,260.000000) scale(0.100000,-0.100000)"
fill="#000000" stroke="none">
<path d="M179 2428 c-20 -11 -46 -38 -58 -58 -21 -38 -21 -38 -21 -1100 l0
-1062 21 -38 c12 -21 38 -47 59 -59 l38 -21 1107 0 1107 0 38 21 c21 12 47 38
59 59 l21 38 0 1062 0 1062 -21 38 c-12 21 -38 47 -59 59 l-38 21 -1108 0
-1109 0 -36 -22z m2257 -40 c17 -9 40 -30 50 -45 18 -27 19 -63 19 -1073 l0
-1045 -22 -31 c-44 -62 12 -59 -1158 -59 -1170 0 -1114 -3 -1158 59 l-22 31
-3 1000 c-2 550 0 1023 3 1050 3 30 15 62 28 78 47 58 6 57 1167 54 981 -2
1067 -3 1096 -19z"/>
<path d="M585 2196 c-8 -13 -27 -68 -40 -122 -14 -54 -31 -115 -38 -134 -16
-45 -83 -165 -102 -180 -8 -7 -15 -18 -15 -24 0 -18 -90 -114 -159 -171 -59
-49 -76 -80 -47 -91 8 -3 39 14 70 40 65 53 186 184 186 202 0 6 7 17 15 24
40 33 110 189 135 298 l12 53 27 -25 c15 -14 31 -26 36 -26 17 0 112 -65 165
-114 31 -28 86 -73 123 -101 37 -27 82 -62 102 -76 43 -33 134 -64 147 -51 15
15 5 46 -17 50 -34 6 -88 34 -130 67 -22 17 -51 38 -65 47 -14 8 -58 46 -98
83 -72 67 -91 80 -184 130 -61 32 -91 70 -76 94 14 22 4 51 -16 51 -9 0 -22
-11 -31 -24z"/>
<path d="M1895 2091 c-3 -6 -21 -11 -39 -11 -19 0 -52 -7 -75 -15 -23 -8 -121
-28 -219 -45 -97 -18 -180 -34 -184 -36 -15 -10 -8 -36 12 -41 17 -4 20 -14
20 -57 0 -93 20 -410 30 -466 21 -119 42 -419 37 -525 -10 -210 -33 -328 -80
-413 -16 -29 -26 -59 -23 -68 8 -22 50 -14 54 11 2 11 10 27 17 35 35 42 69
203 82 397 l5 72 24 -29 c14 -16 45 -41 69 -57 25 -15 45 -31 45 -34 0 -4 40
-37 90 -75 56 -43 86 -72 81 -79 -5 -5 -24 -39 -42 -75 -42 -83 -77 -130 -107
-141 -34 -13 -25 -43 15 -47 28 -3 37 3 72 48 23 29 41 58 41 65 0 7 9 24 20
38 11 14 20 31 20 39 0 7 8 23 18 36 l18 23 59 -48 c33 -26 70 -60 83 -75 13
-16 30 -28 37 -28 7 0 15 -6 18 -14 3 -7 36 -34 74 -59 120 -80 228 -110 228
-62 0 13 -9 21 -30 26 -57 12 -146 59 -203 106 -59 49 -149 127 -192 165 -14
13 -32 26 -42 30 -15 6 -14 14 9 85 35 108 43 316 18 471 -10 59 -22 113 -27
119 -13 17 -164 7 -228 -14 -41 -13 -90 -25 -162 -40 -30 -6 -29 -9 -47 112
-12 84 -37 523 -29 530 2 3 56 14 119 25 112 19 249 49 339 74 34 9 45 17 45
31 0 15 -8 21 -32 23 -17 2 -34 -2 -38 -7z m-1 -808 c33 -176 34 -374 2 -473
-33 -101 -24 -98 -96 -41 -36 28 -76 61 -90 75 -14 13 -41 34 -60 47 -20 13
-54 44 -77 69 -38 43 -41 49 -47 125 -4 44 -9 99 -12 121 l-6 42 39 5 c46 6
193 44 201 51 3 3 36 6 73 6 66 0 68 -1 73 -27z"/>
<path d="M741 1708 c-30 -77 -46 -110 -59 -121 -8 -6 -26 -34 -38 -62 -20 -43
-31 -53 -86 -80 l-63 -30 1 -105 c1 -74 8 -128 24 -185 35 -129 36 -133 9
-137 -16 -2 -24 -10 -24 -23 0 -16 8 -21 38 -23 36 -3 37 -4 37 -42 0 -21 5
-42 10 -45 6 -3 10 -22 10 -40 0 -37 14 -105 36 -170 7 -22 20 -80 30 -130 9
-49 18 -96 20 -103 5 -19 33 -14 64 11 16 12 45 33 65 47 54 37 134 101 172
137 l34 32 49 -62 c28 -35 65 -71 84 -81 61 -32 94 5 37 41 -66 41 -205 216
-245 307 -23 53 -46 70 -61 46 -10 -16 33 -120 72 -172 19 -27 34 -50 32 -52
-2 -1 -20 -13 -39 -26 -19 -13 -54 -40 -77 -59 -67 -58 -125 -101 -134 -101
-8 0 -13 15 -44 135 -33 126 -43 173 -61 296 l-6 37 64 11 c36 6 96 11 134 12
38 0 85 6 104 13 41 15 52 45 21 53 -21 5 -21 11 -21 233 0 190 -2 230 -15
240 -10 9 -45 11 -115 8 -55 -2 -100 -2 -100 0 0 2 8 16 19 30 35 50 72 134
69 155 -4 31 -36 34 -47 5z m139 -348 l0 -110 -37 0 c-21 0 -93 -7 -160 -17
-68 -9 -126 -13 -130 -9 -4 4 -7 41 -8 83 0 58 4 77 15 83 8 4 40 18 70 33 82
39 108 45 183 46 l67 1 0 -110z m-2 -247 l-3 -88 -90 -6 c-49 -4 -109 -10
-132 -14 -32 -6 -44 -4 -47 6 -2 8 -13 45 -25 83 -12 38 -20 70 -19 71 7 5
218 32 266 34 l53 1 -3 -87z"/>
</g>
</svg>
